# xmcd
#
# Track frame offsets: 
#        150
#        17827
#        42175
#        60616
#        77388
#        112453
#        136499
#        164420
#        175287
#        186077
#        196651
#
# Disc length: 2764 seconds
#
# Revision: 0
# Processed by: cddbd v1.5.2PL0 Copyright (c) Steve Scherf et al.
# Submitted via: ExactAudioCopy v0.95b3
#
DISCID=920aca0b
DTITLE=Jimi Hendrix  - Moonbeams and Fairytales - Disc 16
DYEAR=1900
DGENRE=
TTITLE0=Interview (Lief Anderson)
TTITLE1=Foxy Lady
TTITLE2=The Burning of the Midnight Lamp
TTITLE3=Fire
TTITLE4=Catfish Blues
TTITLE5=Hey Joe
TTITLE6=Purple Haze
TTITLE7=Little Miss Lover
TTITLE8=Little Miss Lover
TTITLE9=Little Miss Lover
TTITLE10=Little Miss Lover
EXTD=
EXTT0=
EXTT1=
EXTT2=
EXTT3=
EXTT4=
EXTT5=
EXTT6=
EXTT7=
EXTT8=
EXTT9=
EXTT10=
PLAYORDER=
